<svg xmlns="http://www.w3.org/2000/svg" width="371.23" height="51.77" viewBox="0 0 371.23 51.77">
  <defs>
    <style>
      .cls-1 {
        fill: #fff;
      }
    </style>
  </defs>
  <g id="Calque_2" data-name="Calque 2">
    <g id="Calque_1-2" data-name="Calque 1">
      <g id="LaManuUltraCompact_RVB">
        <g>
          <path class="cls-1" d="M155.16,4.71h7.28V6.17h-5.67V12.7h4.66v1.46h-4.66v7.29h5.67v1.48h-7.28ZM159.5,0h1.85L159,3.23h-1.3Z"/>
          <path class="cls-1" d="M164.19,18.9V8.72c0-2.65,1.43-4.27,4-4.27s4,1.62,4,4.27v1.87h-1.53V8.64c0-1.77-1-2.73-2.45-2.73s-2.37,1-2.37,2.73V19c0,1.77.91,2.71,2.37,2.71s2.45-.94,2.45-2.71V16.53h1.53V18.9c0,2.68-1.43,4.29-4,4.29S164.19,21.58,164.19,18.9Z"/>
          <path class="cls-1" d="M174.18,18.74V8.9c0-2.89,1.46-4.45,4.09-4.45S182.36,6,182.36,8.9v9.84c0,2.89-1.46,4.45-4.09,4.45S174.18,21.63,174.18,18.74Zm6.56.11V8.8c0-2-.88-2.89-2.47-2.89s-2.47.94-2.47,2.89V18.85c0,1.95.88,2.86,2.47,2.86S180.74,20.8,180.74,18.85Z"/>
          <path class="cls-1" d="M184.8,4.71h1.62V21.45h5.44v1.48H184.8Z"/>
          <path class="cls-1" d="M193.68,4.71H201V6.17h-5.68V12.7H200v1.46h-4.66v7.29H201v1.48h-7.29Z"/>
          <path class="cls-1" d="M206.64,18.87v-1h1.54V19c0,1.82.94,2.73,2.45,2.73s2.44-.91,2.44-2.76-.73-2.89-3-4.69c-2.58-2-3.44-3.48-3.44-5.57,0-2.65,1.46-4.24,4-4.24s3.93,1.59,3.93,4.32V9.5h-1.53V8.67c0-1.82-.89-2.76-2.4-2.76s-2.39,1-2.39,2.68.78,2.73,3,4.56c2.58,2.08,3.39,3.48,3.39,5.7,0,2.76-1.46,4.34-4.06,4.34S206.64,21.61,206.64,18.87Z"/>
          <path class="cls-1" d="M216.67,18.74v-14h1.61V18.85c0,1.95.88,2.86,2.45,2.86s2.44-.91,2.44-2.86V4.71h1.56v14c0,2.87-1.4,4.45-4,4.45S216.67,21.61,216.67,18.74Z"/>
          <path class="cls-1" d="M227.29,4.71h3.85c2.78,0,4.06,1.43,4.06,4.37v1.46c0,2.94-1.28,4.38-4.06,4.38H228.9v8h-1.61Zm3.85,8.72c1.69,0,2.45-.75,2.45-2.81V9c0-2-.76-2.81-2.45-2.81H228.9v7.26Z"/>
          <path class="cls-1" d="M237.23,4.71h7.29V6.17h-5.68V12.7h4.66v1.46h-4.66v7.29h5.68v1.48h-7.29ZM241.58,0h1.85l-2.37,3.23h-1.31Z"/>
          <path class="cls-1" d="M246.44,4.71h3.88c2.84,0,4,1.28,4,4.14V10c0,2-.71,3.25-2.21,3.67v0c1.58.37,2.21,1.59,2.21,3.75v3.31a7.09,7.09,0,0,0,.26,2.18H253a8.2,8.2,0,0,1-.24-2.21V17.36c0-2.11-.78-2.83-2.7-2.83h-2v8.4h-1.62ZM250,13c1.85,0,2.73-.79,2.73-2.76V9c0-2-.7-2.81-2.47-2.81h-2.21V13Z"/>
          <path class="cls-1" d="M256.83,4.71h1.61V22.93h-1.61Z"/>
          <path class="cls-1" d="M261.1,4.71h7.29V6.17h-5.68V12.7h4.66v1.46h-4.66v7.29h5.68v1.48H261.1Z"/>
          <path class="cls-1" d="M270.23,18.74v-14h1.62V18.85c0,1.95.88,2.86,2.45,2.86s2.44-.91,2.44-2.86V4.71h1.56v14c0,2.87-1.4,4.45-4,4.45S270.23,21.61,270.23,18.74Z"/>
          <path class="cls-1" d="M280.86,4.71h3.87c2.84,0,4,1.28,4,4.14V10c0,2-.7,3.25-2.21,3.67v0c1.58.37,2.21,1.59,2.21,3.75v3.31a7.09,7.09,0,0,0,.26,2.18h-1.64a8.2,8.2,0,0,1-.24-2.21V17.36c0-2.11-.78-2.83-2.7-2.83h-2v8.4h-1.61ZM284.42,13c1.85,0,2.73-.79,2.73-2.76V9c0-2-.7-2.81-2.47-2.81h-2.21V13Z"/>
          <path class="cls-1" d="M291.24,4.71h7.29V6.17h-5.67V12.7h4.66v1.46h-4.66v7.29h5.67v1.48h-7.29Z"/>
          <path class="cls-1" d="M155.16,30.74h4.06c2.78,0,4.06,1.43,4.06,4.38v9.44c0,3-1.28,4.4-4.06,4.4h-4.06Zm4,16.74c1.69,0,2.47-.78,2.47-2.84V35.06c0-2.05-.78-2.86-2.47-2.86h-2.42V47.48Z"/>
          <path class="cls-1" d="M165.7,30.74H173V32.2h-5.68v6.53H172v1.46h-4.66v7.29H173V49H165.7Z"/>
          <path class="cls-1" d="M174.42,44.9v-1H176V45c0,1.82.94,2.73,2.45,2.73s2.45-.91,2.45-2.76-.73-2.89-3-4.68c-2.58-2.06-3.44-3.49-3.44-5.58,0-2.65,1.46-4.24,4-4.24s3.93,1.59,3.93,4.32v.73h-1.54V34.7c0-1.82-.88-2.76-2.39-2.76s-2.4,1-2.4,2.68.78,2.73,3.05,4.56c2.58,2.08,3.38,3.48,3.38,5.7,0,2.76-1.46,4.34-4.06,4.34S174.42,47.64,174.42,44.9Z"/>
          <path class="cls-1" d="M188.84,30.74h2.42L194.31,46l3-15.23h2.42V49h-1.58V33.08L195,49h-1.41L190.3,33.08V49h-1.46Z"/>
          <path class="cls-1" d="M202.43,30.74h7.29V32.2H204v6.53h4.66v1.46H204v7.29h5.68V49h-7.29ZM206.77,26h1.85l-2.37,3.23H205Z"/>
          <path class="cls-1" d="M214.14,32.2h-3.33V30.74h8.3V32.2h-3.36V49h-1.61Z"/>
          <path class="cls-1" d="M220.93,30.74h1.62V49h-1.62Z"/>
          <path class="cls-1" d="M225.2,30.74h7.29V32.2h-5.67v6.53h4.66v1.46h-4.66v7.29h5.67V49H225.2Z"/>
          <path class="cls-1" d="M234.42,30.74h3.88c2.83,0,4,1.28,4,4.14V36c0,2-.7,3.25-2.21,3.67v0c1.59.37,2.21,1.59,2.21,3.75v3.31a7.09,7.09,0,0,0,.26,2.18H241a8.3,8.3,0,0,1-.23-2.21V43.39c0-2.1-.78-2.83-2.71-2.83h-2V49h-1.61ZM238,39.05c1.85,0,2.74-.78,2.74-2.76V35c0-2-.7-2.81-2.48-2.81H236v6.85Z"/>
          <path class="cls-1" d="M244.26,44.9v-1h1.53V45c0,1.82.94,2.73,2.45,2.73s2.45-.91,2.45-2.76-.73-2.89-3-4.68c-2.57-2.06-3.43-3.49-3.43-5.58,0-2.65,1.45-4.24,4-4.24s3.93,1.59,3.93,4.32v.73h-1.54V34.7c0-1.82-.88-2.76-2.39-2.76s-2.4,1-2.4,2.68.78,2.73,3,4.56c2.57,2.08,3.38,3.48,3.38,5.7,0,2.76-1.46,4.34-4.06,4.34S244.26,47.64,244.26,44.9Z"/>
          <path class="cls-1" d="M258.68,30.74h4.06c2.78,0,4.06,1.43,4.06,4.38v9.44c0,3-1.28,4.4-4.06,4.4h-4.06Zm4,16.74c1.69,0,2.48-.78,2.48-2.84V35.06c0-2.05-.79-2.86-2.48-2.86h-2.42V47.48Z"/>
          <path class="cls-1" d="M269.12,44.77v-14h1.61V44.88c0,1.95.89,2.86,2.45,2.86s2.44-.91,2.44-2.86V30.74h1.57v14c0,2.87-1.41,4.45-4,4.45S269.12,47.64,269.12,44.77Z"/>
          <path class="cls-1" d="M284,30.74h2.14l4.73,14.09V30.74h1.51V49h-1.72l-5.17-15.54V49H284Z"/>
          <path class="cls-1" d="M294.94,44.77v-14h1.61V44.88c0,1.95.89,2.86,2.45,2.86s2.45-.91,2.45-2.86V30.74H303v14c0,2.87-1.41,4.45-4,4.45S294.94,47.64,294.94,44.77Z"/>
          <path class="cls-1" d="M305.56,30.74H308L311,46l3-15.23h2.42V49H314.9V33.08L311.68,49h-1.41L307,33.08V49h-1.46Z"/>
          <path class="cls-1" d="M319.15,30.74h7.29V32.2h-5.68v6.53h4.66v1.46h-4.66v7.29h5.68V49h-7.29ZM323.49,26h1.85L323,29.26h-1.3Z"/>
          <path class="cls-1" d="M328.36,30.74h3.88c2.84,0,4,1.28,4,4.14V36c0,2-.7,3.25-2.21,3.67v0c1.59.37,2.21,1.59,2.21,3.75v3.31a7.41,7.41,0,0,0,.26,2.18h-1.64a8.3,8.3,0,0,1-.23-2.21V43.39c0-2.1-.78-2.83-2.71-2.83h-2V49h-1.61Zm3.57,8.31c1.85,0,2.73-.78,2.73-2.76V35c0-2-.7-2.81-2.47-2.81H330v6.85Z"/>
          <path class="cls-1" d="M338.75,30.74h1.61V49h-1.61Z"/>
          <path class="cls-1" d="M351.66,49.2v1.46h-.52a2.32,2.32,0,0,1-2.48-1.75,4.52,4.52,0,0,1-1.77.31c-2.62,0-4.08-1.56-4.08-4.45V34.93c0-2.89,1.46-4.45,4.08-4.45S351,32,351,34.93v9.84a4.57,4.57,0,0,1-1.22,3.49c.23.68.7.94,1.53.94Zm-4.77-1.46c1.59,0,2.48-.91,2.48-2.86V34.83c0-1.95-.89-2.89-2.48-2.89s-2.47.94-2.47,2.89V44.88C344.42,46.83,345.31,47.74,346.89,47.74Z"/>
          <path class="cls-1" d="M353.32,44.77v-14h1.62V44.88c0,1.95.88,2.86,2.44,2.86s2.45-.91,2.45-2.86V30.74h1.56v14c0,2.87-1.4,4.45-4,4.45S353.32,47.64,353.32,44.77Z"/>
          <path class="cls-1" d="M363.94,30.74h7.29V32.2h-5.67v6.53h4.66v1.46h-4.66v7.29h5.67V49h-7.29Z"/>
        </g>
        <g>
          <path class="cls-1" d="M0,2.69V51.77H146.18V2.69ZM95.32,8.4l-.08,0s0,0,0,0Zm-2.83,3.7h0l0,0h0Zm-71,33.27H7.39V10.08H12V44.41h9.55Zm14.14,0L34,37.24H25.66L24,45.37H22.28l6.64-35.29h4.63l6.71,35.29Zm42.05,0H73.18V18.59l-8.47,24-9.14-24V45.37H53.7V10.08h3.71l8.8,24.16,8.47-24.16h3Zm15.52,0-1.67-8.13H83.23l-1.67,8.13H79.85l6.63-35.29h4.63l6.72,35.29Zm24.69.71h-.58L101.92,15.55V45.33h-2V10.08h4l12,24v-24h1.91ZM138.79,38a8.66,8.66,0,0,1-1,4.44,6.54,6.54,0,0,1-2.46,2.44,8.79,8.79,0,0,1-3.32,1,30.59,30.59,0,0,1-3.52.21q-7.73,0-7.72-6.8V10.08h4.63V38.66A5.15,5.15,0,0,0,126,41a6.73,6.73,0,0,0,3.53,3.24,6.56,6.56,0,0,0,2.48.48,4.45,4.45,0,0,0,3.61-1.51,5.83,5.83,0,0,0,1.27-3.92V10.08h1.92Z"/>
          <polygon class="cls-1" points="83.52 36.24 91.11 36.24 87.48 14.05 83.52 36.24"/>
          <polygon class="cls-1" points="25.96 36.24 33.55 36.24 29.92 14.05 25.96 36.24"/>
        </g>
      </g>
    </g>
  </g>
</svg>
